<!-- icon666.com - MILLIONS vector ICONS FREE --><svg clip-rule="evenodd" fill-rule="evenodd" image-rendering="optimizeQuality" shape-rendering="geometricPrecision" text-rendering="geometricPrecision" viewBox="0 0 1.70666 1.70666" xmlns="http://www.w3.org/2000/svg"><g id="Layer_x0020_1" fill-rule="nonzero"><path d="m1.50019.64685c.114024 0 .20648.0924567.20648.20648 0 .114024-.0924567.20648-.20648.20648-.11402 0-.206476-.0924606-.206476-.20648 0-.11402.0924567-.20648.206476-.20648zm0 .08c-.0698661 0-.126476.0566181-.126476.12648 0 .0698622.0566102.12648.126476.12648.0698661 0 .12648-.0566142.12648-.12648 0-.0698661-.0566142-.12648-.12648-.12648z"></path><path d="m.853331.64685c.11402 0 .206476.0924606.206476.20648 0 .11402-.0924567.20648-.206476.20648-.11402 0-.206476-.0924606-.206476-.20648 0-.11402.0924567-.20648.206476-.20648zm0 .08c-.0698661 0-.126476.0566181-.126476.12648 0 .0698622.0566102.12648.126476.12648.0698661 0 .126476-.0566181.126476-.12648 0-.0698622-.0566102-.12648-.126476-.12648z"></path><path d="m.206476.64685c.11402 0 .206476.0924606.206476.20648 0 .11402-.0924567.20648-.206476.20648-.114024 0-.20648-.0924567-.20648-.20648 0-.114024.0924567-.20648.20648-.20648zm0 .08c-.0698661 0-.12648.0566142-.12648.12648 0 .0698661.0566142.12648.12648.12648.0698661 0 .126476-.0566181.126476-.12648 0-.0698622-.0566102-.12648-.126476-.12648z"></path></g></svg>